<svg xmlns="http://www.w3.org/2000/svg" xmlns:xlink="http://www.w3.org/1999/xlink" width="40" height="40" viewBox="0 0 40 40">
  <defs>
    <clipPath id="clip-path">
      <rect id="Rectangle_98" data-name="Rectangle 98" width="16.713" height="22.576" fill="#fff"/>
    </clipPath>
  </defs>
  <g id="call" transform="translate(-1733 -87)">
    <rect id="call-2" data-name="call" width="40" height="40" rx="20" transform="translate(1733 87)" fill="#7b9645"/>
    <g id="Group_659" data-name="Group 659" transform="translate(1744.644 95.712)">
      <g id="Group_658" data-name="Group 658" transform="translate(0 0)" clip-path="url(#clip-path)">
        <path id="Path_2753" data-name="Path 2753" d="M12.274,22.573l-.419-.143-.867-.538c-.586-.357-1.17-.711-1.743-1.086a16.743,16.743,0,0,1-2.4-1.94,19.144,19.144,0,0,1-2.318-2.648,21.271,21.271,0,0,1-2.237-3.874A25.109,25.109,0,0,1,.819,7.965,30.186,30.186,0,0,1,.154,4.077c-.041-.37-.073-.74-.105-1.11L0,2.432l.213-.6A3.923,3.923,0,0,1,1.645.6,5.888,5.888,0,0,1,4.552,0L5.728.181A7.039,7.039,0,0,1,7.279,1.853,5.657,5.657,0,0,1,8.321,4.644a5.575,5.575,0,0,1-.024.924l-.016.205a1.274,1.274,0,0,1-.657.973A10.527,10.527,0,0,0,6.03,8.024l-.305.316c-.073.073-.124.143-.078.354a9.767,9.767,0,0,0,.643,1.889,13.546,13.546,0,0,0,1.451,2.486,12.1,12.1,0,0,0,1.689,1.848h.016A2.96,2.96,0,0,0,10,14.808q.989-.349,1.953-.759a1.459,1.459,0,0,1,1.37.062,7.486,7.486,0,0,1,2.432,2.132,5.98,5.98,0,0,1,.862,1.659,2.066,2.066,0,0,1,.073.316l.024.127-.149.67a6.905,6.905,0,0,1-1.945,2.553,4.178,4.178,0,0,1-2.242,1ZM1.191,2.526l.032.335c.032.362.065.724.105,1.089a28.9,28.9,0,0,0,.635,3.739,24.267,24.267,0,0,0,1.4,4.174,20.19,20.19,0,0,0,2.113,3.658A18.393,18.393,0,0,0,7.659,18.01a15.486,15.486,0,0,0,2.229,1.807c.565.367,1.137.719,1.713,1.067l.821.5a3.069,3.069,0,0,0,1.467-.748,5.367,5.367,0,0,0,1.537-2.024l.1-.2a.892.892,0,0,0-.035-.154,4.67,4.67,0,0,0-.694-1.332,6.324,6.324,0,0,0-2.064-1.8c-.084-.049-.143-.073-.322.005q-1,.421-2.021.784a3.589,3.589,0,0,1-.792.162l-.178.024a.806.806,0,0,1-.657-.2,13.243,13.243,0,0,1-1.972-2.137,14.591,14.591,0,0,1-1.581-2.7,10.9,10.9,0,0,1-.719-2.118A1.484,1.484,0,0,1,4.9,7.5L5.2,7.184A11.67,11.67,0,0,1,6.973,5.766a.644.644,0,0,0,.143-.113l.005-.181a4.444,4.444,0,0,0,.024-.732A4.522,4.522,0,0,0,6.3,2.518a5.92,5.92,0,0,0-1.2-1.324l-.084-.022-.173.014-.308-.005a5.186,5.186,0,0,0-2.361.476,2.548,2.548,0,0,0-.97.821l-.005,0ZM9.264,14.941l-.022,0ZM.721,2.229l.057.014L.684,2.191Z" transform="translate(0 0.001)" fill="#fff"/>
      </g>
    </g>
  </g>
</svg>
