<svg xmlns="http://www.w3.org/2000/svg" xmlns:xlink="http://www.w3.org/1999/xlink" width="40" height="40" viewBox="0 0 40 40">
  <defs>
    <clipPath id="clip-path">
      <rect id="Rectangle_99" data-name="Rectangle 99" width="13.754" height="27.837" fill="#fff"/>
    </clipPath>
  </defs>
  <g id="location" transform="translate(-1789 -87)">
    <path id="location-2" data-name="location" d="M20,0A20,20,0,1,1,0,20,20,20,0,0,1,20,0Z" transform="translate(1789 87)" fill="#5a5858"/>
    <g id="Group_661" data-name="Group 661" transform="translate(1802.123 93.082)">
      <g id="Group_660" data-name="Group 660" transform="translate(0 0)" clip-path="url(#clip-path)">
        <path id="Path_2755" data-name="Path 2755" d="M6.874,22.815l-.5-.91C6.106,21.44,0,10.463,0,6.877a6.877,6.877,0,1,1,13.754,0c0,3.586-6.109,14.564-6.373,15.028Zm0-21.651a5.72,5.72,0,0,0-5.71,5.713c0,2.488,3.744,9.911,5.71,13.54C8.845,16.788,12.59,9.365,12.59,6.877A5.721,5.721,0,0,0,6.874,1.164" transform="translate(0 0.001)" fill="#fff"/>
        <path id="Path_2756" data-name="Path 2756" d="M4.537,7.478A3.11,3.11,0,1,1,7.651,4.367,3.118,3.118,0,0,1,4.537,7.478m0-5.056A1.946,1.946,0,1,0,6.482,4.367,1.945,1.945,0,0,0,4.537,2.422" transform="translate(2.337 2.062)" fill="#fff"/>
        <path id="Path_2757" data-name="Path 2757" d="M6.463,16.09c-3.423,0-6.212-2.3-6.212-5.122a4.789,4.789,0,0,1,2.042-3.8l.694.934A3.589,3.589,0,0,0,1.42,10.968c0,2.182,2.261,3.958,5.043,3.958s5.048-1.776,5.048-3.958a3.538,3.538,0,0,0-1.43-2.755l.728-.908a4.688,4.688,0,0,1,1.868,3.663c0,2.824-2.787,5.122-6.214,5.122" transform="translate(0.411 11.748)" fill="#fff"/>
      </g>
    </g>
  </g>
</svg>
